PathFileType	4	(X/Y/Z)	s08c0401.trc
DataRate	CameraRate	NumFrames	NumMarkers	Units	OrigDataRate	OrigDataStartFrame	OrigNumFrames
200	200	4	50	mm	200	1250	2000
Frame#	Time	racr			lacr			c7			jug			rlel			rdr			llel			ldr			s2			lic			ric			lasi			rasi			rpsi			lpsi			rgt			lgt			rth1			rth2			rth3			rth4			rlfc			rmfc			rsh1			rsh2			rsh3			rsh4			rlmal			rmmal			rcal			rtoe			rmt5			lth1			lth2			lth4			lth3			llfc			lmfc			llmal			lmmal			lcal			lmt5			lsh1			lsh2			lsh3			lsh4			ltoe			SBIKE			LBIKE			RBIKE			
		X1	Y1	Z1	X2	Y2	Z2	X3	Y3	Z3	X4	Y4	Z4	X5	Y5	Z5	X6	Y6	Z6	X7	Y7	Z7	X8	Y8	Z8	X9	Y9	Z9	X10	Y10	Z10	X11	Y11	Z11	X12	Y12	Z12	X13	Y13	Z13	X14	Y14	Z14	X15	Y15	Z15	X16	Y16	Z16	X17	Y17	Z17	X18	Y18	Z18	X19	Y19	Z19	X20	Y20	Z20	X21	Y21	Z21	X22	Y22	Z22	X23	Y23	Z23	X24	Y24	Z24	X25	Y25	Z25	X26	Y26	Z26	X27	Y27	Z27	X28	Y28	Z28	X29	Y29	Z29	X30	Y30	Z30	X31	Y31	Z31	X32	Y32	Z32	X33	Y33	Z33	X34	Y34	Z34	X35	Y35	Z35	X36	Y36	Z36	X37	Y37	Z37	X38	Y38	Z38	X39	Y39	Z39	X40	Y40	Z40	X41	Y41	Z41	X42	Y42	Z42	X43	Y43	Z43	X44	Y44	Z44	X45	Y45	Z45	X46	Y46	Z46	X47	Y47	Z47	X48	Y48	Z48	X49	Y49	Z49	X50	Y50	Z50	
1250	6.2500	855.364694	1416.360659	-143.439299	873.270477	1304.432700	-459.971393	852.961732	1423.309248	-314.260114	622.254952	1299.729244	-63.686938	744.063238	1205.795151	15.005418	773.203221	927.136759	-67.370770	681.345133	1124.878447	-607.578750	776.785436	934.749185	-456.478490	290.167763	1267.527893	-179.173530	401.350267	1235.533945	-361.900985	486.736661	1264.594191	-60.610982	431.004343	1199.971559	-328.101526	491.745999	1192.614156	-97.681751	339.337351	1302.387824	-141.209891	312.697486	1307.132706	-232.026056	405.291107	1141.826154	-7.748272	330.678079	1144.379391	-377.823899	471.885605	976.987339	-29.217331	511.398387	899.680936	-48.266017	509.462757	813.739473	-56.249601	541.867217	909.630505	-65.080743	515.112030	694.917929	-74.181233	478.211500	700.316670	-180.700102	399.016128	629.073459	-34.920179	347.701667	558.948195	-52.250593	268.527019	522.411540	-52.502757	366.027520	540.462150	-85.607135	165.019858	452.256059	-54.386764	189.573072	451.724941	-142.794423	109.969478	507.584265	-103.113829	207.166078	225.949604	-109.484128	147.898945	296.424691	-40.706526	403.808793	1031.937965	-400.984466	471.730073	978.328901	-412.464864	501.390380	999.700963	-407.712335	503.828510	895.748693	-419.997979	563.289035	775.698493	-411.987803	573.845728	743.661182	-310.409526	359.581584	406.850551	-397.668089	397.565528	419.013122	-315.086547	287.916084	395.549078	-356.566158	475.829888	297.718917	-427.613479	501.855609	662.086495	-431.417912	480.463898	580.119742	-414.345772	420.398171	515.933140	-409.582508	505.654190	571.075973	-384.703155	564.929594	313.021987	-363.866103	-137.770610	943.455503	-229.966695	17.988549	79.835319	-427.706046	18.122816	80.269181	-29.407252	
1251	6.2550	854.221315	1418.235891	-141.031969	873.884440	1306.481802	-458.590603	852.323011	1425.342723	-312.173254	622.454932	1299.956332	-63.370753	743.215788	1205.780803	15.334986	772.896535	926.975882	-67.734439	682.234957	1126.028303	-605.267319	777.520488	934.577125	-456.999761	289.680363	1265.228910	-179.917740	402.418902	1232.384478	-363.260796	486.306956	1264.365473	-61.544884	431.270641	1196.469839	-329.468925	491.872816	1192.520360	-99.040890	338.334105	1300.527074	-142.417158	312.066980	1304.669145	-233.548716	406.840460	1141.431089	-8.146289	329.954519	1139.348191	-377.714904	473.633675	977.134799	-29.142143	514.203913	900.254707	-48.522718	513.022233	814.408919	-56.433626	544.522020	910.636639	-64.979500	521.196605	696.310735	-75.902352	484.194287	701.426953	-181.644525	404.005717	634.187020	-36.647908	350.659287	564.799703	-54.102746	270.906139	530.204563	-53.881397	369.051230	545.699152	-86.874780	166.363452	462.787589	-54.950762	183.264233	459.148511	-147.983252	111.544810	518.264822	-103.659476	207.922331	236.553536	-109.639983	148.909107	306.947831	-40.954776	402.085462	1026.152467	-400.437933	469.008273	971.397340	-412.081011	499.133040	992.435337	-407.422969	500.106281	888.348009	-418.491619	558.259816	768.521289	-410.322228	567.386886	736.369041	-309.462578	359.394198	396.840563	-398.456376	396.726640	408.990621	-316.036929	287.757920	386.602102	-357.797961	475.219628	286.315712	-427.313047	498.585930	653.508891	-430.170016	478.657119	571.218651	-413.219455	419.724410	505.934696	-409.136733	503.240662	562.963245	-382.792209	564.308913	300.802050	-363.402655	-137.901281	943.358061	-230.038979	17.918121	79.748264	-427.760681	18.073062	80.277913	-29.367736	
1252	6.2600	853.315521	1420.109233	-138.595443	874.495241	1308.753897	-457.316802	851.772211	1427.373199	-309.942315	622.884253	1300.090711	-62.816934	742.506280	1205.795344	15.973248	772.787134	926.954600	-68.386803	682.921799	1127.246337	-602.834111	778.453977	934.498589	-457.721892	289.388014	1262.626383	-180.599710	403.527175	1229.365500	-364.898856	485.588202	1263.931276	-62.459046	431.643842	1192.651254	-330.960982	491.590197	1192.041815	-100.328983	336.961612	1298.791806	-143.775667	311.631926	1301.591502	-235.552528	407.029809	1140.654157	-9.033622	329.605475	1134.004797	-377.796950	474.640723	976.961355	-28.810427	516.418965	900.877994	-48.349378	516.783261	814.812361	-56.503173	546.866696	911.850549	-64.448559	527.035002	698.252474	-77.862473	489.125396	703.389464	-184.083240	408.891100	639.518589	-38.527172	353.898879	570.690370	-56.594070	273.635301	538.107321	-55.092630	372.328677	551.154189	-88.065595	168.203028	473.362591	-55.640678	185.533315	469.439602	-149.064597	113.593514	528.891678	-104.236105	209.404674	247.014164	-109.983462	150.590153	317.748556	-41.220586	400.411850	1020.002784	-400.000262	466.737736	964.311696	-411.219441	497.021675	984.807766	-407.209455	496.386572	880.664556	-416.990237	551.919134	761.801413	-409.821125	561.230355	728.950578	-307.952034	358.675102	386.816027	-398.560525	391.786055	395.633181	-321.831190	287.560337	376.917683	-357.450698	473.812282	275.244557	-426.970290	495.179128	644.856890	-428.446878	476.229506	562.418635	-411.965793	418.366800	496.499248	-408.797364	500.400870	554.746006	-381.085676	563.047804	288.584096	-362.916028	-138.018261	943.299279	-230.137874	17.829951	79.852595	-427.894651	17.973786	80.210663	-29.370344	
1253	6.2650	852.622424	1421.751696	-136.024183	874.900243	1311.156595	-455.951618	851.286277	1429.389118	-307.621762	623.472947	1300.231391	-62.047493	741.845656	1205.748207	16.874763	772.408698	926.913564	-68.545107	683.460927	1128.641398	-600.340588	779.376473	934.503499	-458.246225	288.422575	1260.199273	-182.057411	404.766073	1226.443296	-366.794396	484.533984	1263.315771	-62.195222	432.143373	1188.894956	-332.924724	490.846268	1191.480182	-101.485746	335.719902	1297.022704	-145.043422	311.146732	1298.648797	-238.130558	407.144973	1140.190044	-9.531636	329.594422	1128.577428	-378.086485	475.085996	976.493801	-28.285903	518.118220	901.398482	-48.021243	519.760264	815.172820	-56.649346	548.269099	912.761898	-64.700175	532.867601	700.411173	-79.783855	496.063939	704.824178	-185.013338	413.931948	645.046003	-40.407890	357.592729	577.194548	-57.842018	277.219274	545.798203	-56.016595	375.908458	556.929791	-89.029816	170.364372	483.828862	-56.344790	189.819051	484.965044	-144.844846	116.026237	539.447803	-104.765548	211.760452	257.538117	-110.192238	153.015818	328.385616	-41.471957	399.209729	1013.865990	-399.787443	464.503605	956.894128	-410.521437	495.386676	976.678926	-406.253632	492.668816	872.633435	-415.397468	546.415563	754.144033	-407.751349	557.259695	721.842806	-304.633022	357.287790	377.181459	-398.486821	390.364746	385.636611	-321.610097	286.451104	367.957689	-357.497240	471.763130	264.242850	-426.611173	491.116591	636.568491	-426.687570	473.110227	553.975596	-410.673249	416.003785	487.269057	-407.885153	497.049771	546.520931	-379.485513	561.156301	276.576794	-362.404449	-138.087321	943.262057	-230.218047	17.829588	79.697892	-427.797832	17.869295	80.120595	-29.478470	
